<?xml version="1.0" standalone="no"?>
<!DOCTYPE svg PUBLIC "-//W3C//DTD SVG 20010904//EN"
 "http://www.w3.org/TR/2001/REC-SVG-20010904/DTD/svg10.dtd">
<svg version="1.0" xmlns="http://www.w3.org/2000/svg"
 width="225.000000pt" height="225.000000pt" viewBox="0 0 225.000000 225.000000"
 preserveAspectRatio="xMidYMid meet">
<metadata>
Created by potrace 1.16, written by Peter Selinger 2001-2019
</metadata>
<g transform="translate(0.000000,225.000000) scale(0.100000,-0.100000)"
fill="#000000" stroke="none">
<path d="M267 1982 c-16 -17 -17 -91 -17 -859 0 -801 1 -841 18 -856 17 -16
91 -17 859 -17 801 0 841 1 856 18 16 17 17 91 17 859 0 801 -1 841 -18 856
-17 16 -91 17 -859 17 -801 0 -841 -1 -856 -18z m1170 -444 c155 -103 287
-196 293 -207 11 -22 14 -400 2 -417 -15 -23 -588 -398 -607 -398 -20 0 -593
375 -607 397 -12 19 -9 396 2 418 10 18 556 389 590 401 8 3 22 3 30 0 8 -3
142 -90 297 -194z"/>
<path d="M868 1447 c-109 -73 -198 -135 -198 -138 0 -9 170 -121 179 -117 5 2
56 35 115 73 l106 70 0 123 c0 67 -1 122 -2 121 -2 0 -92 -60 -200 -132z"/>
<path d="M1180 1458 l0 -123 106 -70 c59 -38 110 -71 115 -73 9 -4 179 108
179 117 0 3 -90 66 -200 139 l-200 132 0 -122z"/>
<path d="M1032 1185 l-92 -62 87 -58 c48 -32 92 -58 98 -58 10 0 187 114 183
118 -2 1 -43 29 -93 62 l-90 60 -93 -62z"/>
<path d="M757 1002 c-48 -31 -87 -60 -87 -63 0 -5 212 -149 373 -253 l27 -18
0 121 0 121 -102 68 c-57 38 -108 71 -114 75 -5 3 -49 -20 -97 -51z"/>
<path d="M1292 985 l-112 -75 0 -121 0 -121 28 18 c159 104 372 248 372 253 0
5 -24 22 -149 103 -27 17 -27 17 -139 -57z"/>
</g>
</svg>
