<?xml version="1.0" standalone="no"?>
<!DOCTYPE svg PUBLIC "-//W3C//DTD SVG 20010904//EN"
 "http://www.w3.org/TR/2001/REC-SVG-20010904/DTD/svg10.dtd">
<svg version="1.0" xmlns="http://www.w3.org/2000/svg"
 width="225.000000pt" height="225.000000pt" viewBox="0 0 225.000000 225.000000"
 preserveAspectRatio="xMidYMid meet">
<metadata>
Created by potrace 1.16, written by Peter Selinger 2001-2019
</metadata>
<g transform="translate(0.000000,225.000000) scale(0.100000,-0.100000)"
fill="#000000" stroke="none">
<path d="M168 2234 c-65 -20 -133 -89 -153 -156 -23 -77 -23 -1829 0 -1906 21
-69 88 -136 157 -157 77 -23 1829 -23 1906 0 69 21 136 88 157 157 23 77 23
1829 0 1906 -21 69 -88 136 -157 157 -75 22 -1838 21 -1910 -1z m1347 -604
c245 -164 349 -238 355 -256 13 -33 13 -465 0 -498 -13 -34 -707 -498 -745
-498 -38 0 -732 464 -745 498 -13 33 -13 465 0 498 6 18 110 92 355 256 191
127 356 235 368 239 12 5 32 5 44 0 12 -4 177 -112 368 -239z"/>
<path d="M812 1526 c-133 -90 -245 -165 -248 -169 -7 -6 200 -147 216 -147 6
0 71 41 145 90 l135 90 0 150 c0 83 -1 150 -2 149 -2 0 -112 -74 -246 -163z"/>
<path d="M1190 1540 l0 -150 135 -90 c74 -49 139 -90 145 -90 20 0 222 142
214 150 -5 4 -118 80 -251 169 l-243 161 0 -150z"/>
<path d="M1017 1205 c-60 -40 -109 -75 -110 -79 -1 -3 47 -39 108 -79 l110
-74 113 75 c62 42 109 79 105 82 -5 4 -55 39 -113 77 l-105 70 -108 -72z"/>
<path d="M500 1125 l0 -107 28 18 c76 49 132 87 132 89 0 2 -56 40 -132 89
l-28 18 0 -107z"/>
<path d="M1674 1183 c-40 -27 -72 -52 -72 -58 0 -5 32 -31 72 -57 l71 -48 3
55 c2 31 2 78 0 105 l-3 50 -71 -47z"/>
<path d="M661 968 c-57 -38 -99 -73 -95 -78 5 -4 118 -80 252 -169 l242 -161
0 150 0 150 -135 90 c-74 49 -140 90 -147 89 -7 0 -60 -32 -117 -71z"/>
<path d="M1323 949 l-133 -89 0 -150 0 -150 243 161 c133 89 246 165 251 169
9 9 -196 150 -216 149 -7 0 -73 -41 -145 -90z"/>
</g>
</svg>
